<?xml version="1.0" encoding="utf-8"?>
<svg version="1.1" id="Layer_1" xmlns="http://www.w3.org/2000/svg" xmlns:xlink="http://www.w3.org/1999/xlink" x="0px" y="0px"
	 viewBox="0 0 773.52 293.49" fill="currentColor" xml:space="preserve">
<g>
	<path d="M773.52,191.67c0,71.1-59.63,101.81-129.33,101.81h-397.9l34.9-22.9l60.72-39.83h312.84c14.83,0,27.43-9.6,32.13-23.02
		c0.18-0.24,0.25-0.56,0.3-0.86c0.3-0.87,0.55-1.73,0.72-2.66c0.74-2.7,1.09-5.53,1.09-8.43c0.05-0.37,0.05-0.67,0.05-1.05
		c0-6.02-1.32-11.26-4.21-15.57c-0.07-0.12-0.12-0.24-0.19-0.3c-1.5-2.9-3.43-5.49-5.67-7.76c-6.21-6.28-14.76-10.22-24.23-10.22
		H449.16l90.8-59.96h102.47c6.14,0,11.7-2.48,15.72-6.51c4.02-4.02,6.51-9.56,6.51-15.71c0-12.27-9.96-22.23-22.23-22.23h-36.39
		L690.98,0c33.4,9.66,57.34,31.45,57.34,68.51c0,25.78-16.59,46.23-37.93,51.58C743.07,124.96,773.52,149.89,773.52,191.67"/>
	<polygon points="576.91,0 481.35,61.38 481.05,61.38 449.88,81.03 449.16,81.45 447.77,82.36 375.12,129.32 318.75,165.8 
		304.46,175.02 229.04,223.49 219.21,223.49 80.19,134.81 80.19,293.49 0,293.49 0,0 10.19,0 224.34,137.76 276.19,104.54 
		364.39,47.99 375.12,41.12 439.33,0 	"/>
</g>
</svg>
