<?xml version="1.0" standalone="no"?>
<!DOCTYPE svg PUBLIC "-//W3C//DTD SVG 20010904//EN"
 "http://www.w3.org/TR/2001/REC-SVG-20010904/DTD/svg10.dtd">
<svg version="1.0" xmlns="http://www.w3.org/2000/svg"
 width="1000.000000pt" height="1000.000000pt" viewBox="0 0 1000.000000 1000.000000"
 preserveAspectRatio="xMidYMid meet">
<metadata>
Created by potrace 1.14, written by Peter Selinger 2001-2017
</metadata>
<g transform="translate(0.000000,1000.000000) scale(0.100000,-0.100000)"
fill="#000000" stroke="none">
<path d="M11 6890 c-9 -6 -11 -3790 -2 -3791 3 0 235 -1 516 -1 l510 -1 5 29
c3 16 5 475 4 1021 -1 882 1 991 14 985 9 -3 50 -28 93 -56 43 -28 104 -67
136 -87 91 -57 701 -446 773 -493 36 -24 225 -145 421 -269 l356 -227 64 0
c63 0 65 1 204 90 77 49 145 94 152 100 6 5 27 18 45 29 18 10 150 94 293 186
143 92 296 191 339 219 44 28 116 74 160 103 45 28 86 56 93 62 7 6 15 11 17
11 5 0 160 100 356 229 30 20 59 38 65 41 5 3 62 39 125 80 63 42 150 98 193
125 42 28 146 95 230 150 85 55 178 115 208 134 30 19 135 87 234 151 99 64
279 179 400 255 217 136 532 337 703 447 48 31 170 109 272 174 102 65 187
121 188 126 2 4 8 8 13 8 8 0 269 167 269 172 0 2 -400 2 -890 2 l-890 -2
-167 -108 c-207 -132 -350 -224 -608 -389 -324 -207 -370 -236 -487 -312 -61
-40 -112 -73 -114 -73 -2 0 -54 -33 -116 -74 -115 -75 -876 -563 -1003 -643
-38 -24 -118 -75 -176 -112 l-107 -69 -178 116 c-99 63 -222 143 -274 177 -52
34 -106 68 -120 75 -14 7 -27 16 -30 19 -3 4 -79 54 -170 111 -91 58 -169 108
-175 113 -12 9 -227 147 -253 162 -10 6 -56 35 -102 66 -47 31 -150 97 -230
148 -80 51 -216 139 -302 194 -87 56 -305 197 -485 312 -180 116 -350 225
-378 244 -41 29 -62 36 -118 41 -38 3 -72 3 -76 0z"/>
<path d="M8383 6528 c-299 -199 -541 -363 -540 -365 2 -1 117 -3 257 -3 219
-1 260 -4 301 -20 73 -27 124 -73 158 -142 72 -143 14 -309 -134 -382 l-57
-28 -694 0 -694 0 -333 -220 c-182 -121 -447 -296 -587 -389 l-255 -169 1355
0 c876 0 1370 -4 1399 -11 118 -27 221 -105 288 -217 64 -108 75 -216 36 -355
-34 -122 -138 -237 -262 -289 l-56 -23 -2072 -3 -2073 -2 -262 -173 c-145 -95
-325 -213 -401 -262 -76 -50 -145 -96 -152 -102 -8 -7 -16 -13 -19 -13 -3 0
-65 -40 -138 -88 -73 -48 -162 -107 -198 -130 -44 -28 -58 -42 -45 -43 130 -5
5248 0 5325 6 164 11 152 10 370 51 125 24 331 98 450 162 293 156 490 381
584 662 47 144 60 232 60 415 0 185 -4 214 -40 323 -31 93 -65 161 -119 237
-43 60 -149 170 -182 189 -10 5 -26 17 -35 26 -51 47 -316 160 -377 160 -38 0
-21 15 68 58 174 84 297 243 347 447 22 93 24 252 4 354 -33 163 -113 316
-225 426 -55 55 -187 153 -205 152 -3 0 -23 11 -45 24 -46 28 -192 87 -233 94
-22 4 -120 -57 -569 -357z"/>
</g>
</svg>
